<?xml version="1.0" encoding="iso-8859-1"?>
<!-- Generator: Adobe Illustrator 19.0.0, SVG Export Plug-In . SVG Version: 6.00 Build 0)  -->
<svg version="1.1" id="Layer_1" xmlns="http://www.w3.org/2000/svg" xmlns:xlink="http://www.w3.org/1999/xlink" x="0px" y="0px"
	 viewBox="0 0 512 512" style="enable-background:new 0 0 512 512;" xml:space="preserve">
<g>
	<g>
		<path d="M314.566,152.293l0.297,0.058C314.603,152.264,314.523,152.253,314.566,152.293z"/>
	</g>
</g>
<g>
	<g>
		<path d="M388.11,275.162l-12.43-74.814c-0.939-5.647-4.752-10.396-10.061-12.534l-53.003-21.355
			c-5.063-2.039-10.469-3.095-15.927-3.106l-86.254-0.191l-47.32-27.374V69.295c0-0.114-0.014-0.224-0.017-0.337
			c16.869-2.332,29.863-16.799,29.863-34.311C192.961,15.513,177.449,0,158.313,0c-19.136,0-34.648,15.512-34.648,34.648
			c0,9.57,3.879,18.233,10.152,24.503c-2.202,2.793-3.527,6.311-3.527,10.145v75.959c0,5.859,3.122,11.273,8.194,14.206
			l70.551,40.813l-0.218,289.779c-0.035,12.086,9.733,21.912,21.818,21.948c0.023,0,0.044,0,0.066,0
			c12.054,0,21.846-9.755,21.881-21.818l0.458-153.687h27.189l21.195,11.24l-17.192,66.406c-3.029,11.7,4,23.64,15.7,26.67
			c11.705,3.028,23.641-4.005,26.67-15.7l21.521-83.13c2.538-9.806-1.984-20.072-10.933-24.817L306.1,300.675v-101.44l38.709,15.585
			l10.92,65.722c1.485,8.94,9.935,14.986,18.881,13.501C383.551,292.557,389.595,284.104,388.11,275.162z"/>
	</g>
</g>
<g>
	<g>
		<circle cx="257.562" cy="110.793" r="37.984"/>
	</g>
</g>
<g>
</g>
<g>
</g>
<g>
</g>
<g>
</g>
<g>
</g>
<g>
</g>
<g>
</g>
<g>
</g>
<g>
</g>
<g>
</g>
<g>
</g>
<g>
</g>
<g>
</g>
<g>
</g>
<g>
</g>
</svg>
